<svg version="1.2" xmlns="http://www.w3.org/2000/svg" viewBox="0 0 1532 256" width="1532" height="256">
	<title>sdsdfsd-svg</title>
	<style>
		.s0 { fill: #280071 } 
	</style>
	<path id="Layer" class="s0" d="m147.7 73.7v-73.7h-73.9v36.9h-36.9v36.8h-36.9v73.7h73.8v-73.7zm-18.4 147.4c-10.2 0-18.5-8.2-18.5-18.4 0-10.2 8.3-18.4 18.5-18.4 10.2 0 18.4 8.2 18.4 18.4 0 10.2-8.2 18.4-18.4 18.4zm36.9 0c-10.2 0-18.5-8.2-18.5-18.4 0-10.2 8.3-18.4 18.5-18.4 10.2 0 18.4 8.2 18.4 18.4 0 10.2-8.2 18.4-18.4 18.4zm36.9-2.3c-8.9 0-16.1-7.2-16.1-16.1 0-8.9 7.2-16.1 16.1-16.1 8.9 0 16.2 7.2 16.2 16.1 0 8.9-7.3 16.1-16.2 16.1zm-73.8 36.9c-9 0-16.2-7.2-16.2-16.1 0-8.9 7.2-16.2 16.2-16.2 8.9 0 16.1 7.3 16.1 16.2 0 8.9-7.2 16.1-16.1 16.1zm36.9-2.3c-7.7 0-13.9-6.2-13.9-13.8 0-7.7 6.2-13.9 13.9-13.9 7.6 0 13.8 6.2 13.8 13.9 0 7.6-6.2 13.8-13.8 13.8zm36.9-106c-10.2 0-18.5-8.2-18.5-18.4 0-10.2 8.3-18.4 18.5-18.4 10.2 0 18.5 8.2 18.5 18.4 0 10.2-8.3 18.4-18.5 18.4zm36.9-2.3c-8.9 0-16.1-7.2-16.1-16.1 0-8.9 7.2-16.1 16.1-16.1 9 0 16.2 7.2 16.2 16.1 0 8.9-7.2 16.1-16.2 16.1zm-36.9 39.2c-10.2 0-18.5-8.3-18.5-18.4 0-10.2 8.3-18.5 18.5-18.5 10.2 0 18.5 8.3 18.5 18.5 0 10.1-8.3 18.4-18.5 18.4zm36.9-4.6c-7.6 0-13.8-6.2-13.8-13.8 0-7.7 6.2-13.9 13.8-13.9 7.7 0 13.9 6.2 13.9 13.9 0 7.6-6.2 13.8-13.9 13.8z"/>
	<path id="Layer" fill-rule="evenodd" class="s0" d="m1289.7 55.4c0 0-20.7 78.3-27.6 106-7 27.6-18.7 34.5-41.6 34.5-22.8 0-35.4-11.6-41.5-34.7-7.3-27.6-27.7-105.9-27.7-105.9h32.3l23.1 110.6h27.7l23-110.6zm-772.9-10.5c-10.8 0-19.6-8.8-19.6-19.6 0-10.8 8.8-19.6 19.6-19.6 10.9 0 19.6 8.8 19.6 19.6 0 10.8-8.7 19.6-19.6 19.6zm-106.1 120.9h50.7v27.7h-11.5c-46.1 0-66.9-27.7-66.9-69.1v-41.5h-32.3v-27.7h32.3v-55.2h27.7v55.2h36.9v27.7h-36.9zm133.8 0h27.7v27.6h-83.1v-27.6h27.7v-82.9h-41.5v-27.7c41.5 0 69.2 24.2 69.2 66.8zm784.5 0h50.7v27.7h-96.9v-27.7h18.5v-46c0-39.3 30-64.5 69.2-64.5v27.6h-41.5zm203-110.6c0 0-30.4 121.4-36.9 147.5-2.3 7.3-5.7 14.2-10.2 20.4-4.5 6.2-9.9 11.7-16.1 16.3-6.2 4.5-13 8-20.3 10.4-7.3 2.4-15 3.6-22.6 3.5h-9.3v-27.6h50.8v-30h-13.8c-23.1 0-32.3-20.7-37-39.1l-25.3-101.4h32.3l20.7 110.6h34.6l20.8-110.6zm-383 66.8v16.2h-110.7v27.6h96.9v27.6h-60c-9.2-0.2-18.3-2.3-26.7-6-8.4-3.7-16-9-22.4-15.7-6.5-6.6-11.5-14.3-15-22.9-3.4-8.5-5.2-17.6-5.2-26.8 0-39.4 32.1-69.1 71.6-69.1 39.5 0 71.5 29.7 71.5 69.1zm-110.7-11.5h78.4v-27.6h-78.4zm-258.5 55.3h60v27.6h-20.7c-46.2 0-66.9-25.3-66.9-66.8v-43.8h-32.3v-27.6h32.3v-55.3h27.6v55.3h46.2v27.6h-46.2zm166.1-107.9c8.8 3.6 16.7 8.8 23.4 15.5 6.7 6.7 12 14.6 15.5 23.4 3.5 8.7 5.2 18.1 5 27.6 0 18.9-7.5 37.1-21 50.5-13.4 13.3-31.6 20.9-50.5 20.9-19 0-37.2-7.6-50.6-20.9-13.4-13.4-20.9-31.6-20.9-50.5-0.3-9.5 1.4-18.9 5-27.6 3.5-8.8 8.7-16.7 15.4-23.4 6.7-6.7 14.7-11.9 23.5-15.5 8.7-3.5 18.1-5.2 27.6-5 9.4-0.2 18.8 1.5 27.6 5zm-69.2 107.9h83.1v-82.9h-83.1zm-161.5-43.8v16.2h-110.7v27.6h96.9v27.6h-60c-9.2-0.2-18.3-2.3-26.7-6-8.4-3.7-16-9-22.4-15.7-6.4-6.6-11.5-14.3-14.9-22.9-3.5-8.5-5.2-17.6-5.2-26.8 0-39.4 32-69.1 71.5-69.1 39.5 0 71.5 29.7 71.5 69.1zm-110.7-11.5h78.4v-27.6h-78.4z"/>
</svg>